<svg width="15" height="15" viewBox="0 0 15 15" fill="none" xmlns="http://www.w3.org/2000/svg">
<path d="M14.4229 7.06557C15.5303 6.22798 14.9379 4.46293 13.5495 4.46293H11.0372C10.4023 4.46293 9.84145 4.04929 9.65392 3.4427L8.905 1.02027C8.48445 -0.340033 6.55898 -0.340033 6.13843 1.02027L5.38951 3.4427C5.20198 4.04929 4.64114 4.46293 4.00622 4.46293H1.45053C0.0665697 4.46293 -0.528615 6.21856 0.570019 7.0602L2.75889 8.73704C3.23892 9.10478 3.43986 9.73211 3.26282 10.3103L2.46752 12.9078C2.05508 14.2548 3.61415 15.3378 4.73248 14.481L6.6412 13.0188C7.16074 12.6208 7.88268 12.6208 8.40223 13.0188L10.2941 14.4681C11.414 15.3261 12.9746 14.2389 12.5579 12.8911L11.7516 10.2829C11.5716 9.70074 11.7754 9.06815 12.2614 8.70053L14.4229 7.06557Z" fill="#FFAD33"/>
</svg>
