<svg width="15" height="15" viewBox="0 0 15 15" fill="none" xmlns="http://www.w3.org/2000/svg">
<path d="M14.4234 7.06554C15.5308 6.22794 14.9384 4.4629 13.55 4.4629H11.0377C10.4028 4.4629 9.84195 4.04925 9.65442 3.44267L8.90551 1.02024C8.48496 -0.340065 6.55948 -0.340065 6.13893 1.02024L5.39002 3.44267C5.20248 4.04925 4.64164 4.4629 4.00673 4.4629H1.45104C0.0670746 4.4629 -0.52811 6.21853 0.570524 7.06016L2.75939 8.73701C3.23942 9.10474 3.44036 9.73208 3.26333 10.3103L2.46802 12.9077C2.05558 14.2548 3.61465 15.3377 4.73298 14.481L6.64171 13.0188C7.16125 12.6208 7.88319 12.6208 8.40273 13.0188L10.2946 14.4681C11.4145 15.3261 12.9751 14.2389 12.5584 12.8911L11.7521 10.2829C11.5721 9.70071 11.7759 9.06812 12.2619 8.7005L14.4234 7.06554Z" fill="#FFAD33"/>
</svg>
